<svg width="158" height="39" viewBox="0 0 158 39" fill="none" xmlns="http://www.w3.org/2000/svg">
<path opacity="0.7" d="M54.482 24V10.605H59.346C60.8787 10.605 62.1707 10.871 63.222 11.403C64.286 11.9223 65.0903 12.6823 65.635 13.683C66.1797 14.671 66.452 15.8743 66.452 17.293C66.452 18.699 66.1797 19.9023 65.635 20.903C65.0903 21.9037 64.286 22.67 63.222 23.202C62.1707 23.734 60.8787 24 59.346 24H54.482ZM56.933 21.967H59.194C60.8153 21.967 62.0187 21.5807 62.804 20.808C63.5893 20.0353 63.982 18.8637 63.982 17.293C63.982 15.7097 63.5893 14.538 62.804 13.778C62.0187 13.0053 60.8153 12.619 59.194 12.619H56.933V21.967ZM72.8697 24.19C72.0337 24.19 71.299 23.9937 70.6657 23.601C70.0323 23.1957 69.5383 22.6193 69.1837 21.872C68.829 21.1247 68.6517 20.2317 68.6517 19.193C68.6517 18.1543 68.829 17.2677 69.1837 16.533C69.5383 15.7857 70.0323 15.2157 70.6657 14.823C71.299 14.4177 72.0337 14.215 72.8697 14.215C73.6803 14.215 74.3897 14.4177 74.9977 14.823C75.6183 15.2157 76.03 15.7477 76.2327 16.419H76.0237L76.2327 14.405H78.5127C78.4747 14.7977 78.4367 15.1967 78.3987 15.602C78.3733 16.0073 78.3607 16.4063 78.3607 16.799V24H76.0047L75.9857 22.024H76.2137C76.011 22.6827 75.5993 23.2083 74.9787 23.601C74.358 23.9937 73.655 24.19 72.8697 24.19ZM73.5347 22.366C74.282 22.366 74.8837 22.1063 75.3397 21.587C75.7957 21.055 76.0237 20.257 76.0237 19.193C76.0237 18.129 75.7957 17.3373 75.3397 16.818C74.8837 16.2987 74.282 16.039 73.5347 16.039C72.7873 16.039 72.1857 16.2987 71.7297 16.818C71.2737 17.3373 71.0457 18.129 71.0457 19.193C71.0457 20.257 71.2673 21.055 71.7107 21.587C72.1667 22.1063 72.7747 22.366 73.5347 22.366ZM84.7669 24.19C83.9435 24.19 83.1835 24.095 82.4869 23.905C81.8029 23.7023 81.2265 23.4237 80.7579 23.069L81.4229 21.473C81.9042 21.8023 82.4362 22.0557 83.0189 22.233C83.6015 22.4103 84.1905 22.499 84.7859 22.499C85.4192 22.499 85.8879 22.3913 86.1919 22.176C86.5085 21.9607 86.6669 21.6693 86.6669 21.302C86.6669 21.0107 86.5655 20.7827 86.3629 20.618C86.1729 20.4407 85.8625 20.3077 85.4319 20.219L83.5319 19.858C82.7212 19.6807 82.1005 19.3767 81.6699 18.946C81.2519 18.5153 81.0429 17.9517 81.0429 17.255C81.0429 16.6597 81.2012 16.134 81.5179 15.678C81.8472 15.222 82.3095 14.8673 82.9049 14.614C83.5129 14.348 84.2222 14.215 85.0329 14.215C85.7422 14.215 86.4072 14.31 87.0279 14.5C87.6612 14.69 88.1932 14.975 88.6239 15.355L87.9399 16.894C87.5472 16.5773 87.0975 16.3303 86.5909 16.153C86.0842 15.9757 85.5902 15.887 85.1089 15.887C84.4502 15.887 83.9689 16.0073 83.6649 16.248C83.3609 16.476 83.2089 16.7737 83.2089 17.141C83.2089 17.4197 83.2975 17.654 83.4749 17.844C83.6649 18.0213 83.9562 18.1543 84.3489 18.243L86.2489 18.604C87.0975 18.7687 87.7372 19.06 88.1679 19.478C88.6112 19.8833 88.8329 20.4407 88.8329 21.15C88.8329 21.7833 88.6619 22.328 88.3199 22.784C87.9779 23.24 87.5029 23.5883 86.8949 23.829C86.2869 24.0697 85.5775 24.19 84.7669 24.19ZM91.2654 24V10.016H93.6404V16.324H93.3744C93.6658 15.64 94.1154 15.1207 94.7234 14.766C95.3314 14.3987 96.0281 14.215 96.8134 14.215C97.9534 14.215 98.8021 14.538 99.3594 15.184C99.9168 15.8173 100.195 16.7863 100.195 18.091V24H97.8204V18.205C97.8204 17.4577 97.6748 16.9193 97.3834 16.59C97.1048 16.248 96.6551 16.077 96.0344 16.077C95.3124 16.077 94.7298 16.305 94.2864 16.761C93.8558 17.2043 93.6404 17.7997 93.6404 18.547V24H91.2654ZM108.605 24.19C107.794 24.19 107.085 23.9937 106.477 23.601C105.869 23.1957 105.463 22.651 105.261 21.967H105.47V24H103.114V10.016H105.489V16.362H105.261C105.476 15.7033 105.888 15.184 106.496 14.804C107.104 14.4113 107.807 14.215 108.605 14.215C109.453 14.215 110.194 14.4177 110.828 14.823C111.461 15.2283 111.955 15.8047 112.31 16.552C112.664 17.2867 112.842 18.1733 112.842 19.212C112.842 20.2507 112.664 21.1437 112.31 21.891C111.955 22.6257 111.455 23.1957 110.809 23.601C110.175 23.9937 109.441 24.19 108.605 24.19ZM107.94 22.366C108.687 22.366 109.289 22.1063 109.745 21.587C110.213 21.0677 110.448 20.276 110.448 19.212C110.448 18.148 110.213 17.3563 109.745 16.837C109.289 16.305 108.687 16.039 107.94 16.039C107.192 16.039 106.591 16.2987 106.135 16.818C105.679 17.3373 105.451 18.129 105.451 19.193C105.451 20.257 105.679 21.055 106.135 21.587C106.591 22.1063 107.192 22.366 107.94 22.366ZM119.628 24.19C118.64 24.19 117.785 23.9873 117.063 23.582C116.341 23.1767 115.777 22.6003 115.372 21.853C114.979 21.1057 114.783 20.219 114.783 19.193C114.783 18.167 114.979 17.2867 115.372 16.552C115.777 15.8047 116.341 15.2283 117.063 14.823C117.785 14.4177 118.64 14.215 119.628 14.215C120.616 14.215 121.471 14.4177 122.193 14.823C122.928 15.2283 123.491 15.8047 123.884 16.552C124.289 17.2867 124.492 18.167 124.492 19.193C124.492 20.219 124.289 21.1057 123.884 21.853C123.491 22.6003 122.928 23.1767 122.193 23.582C121.471 23.9873 120.616 24.19 119.628 24.19ZM119.628 22.366C120.375 22.366 120.971 22.1063 121.414 21.587C121.857 21.055 122.079 20.257 122.079 19.193C122.079 18.129 121.857 17.3373 121.414 16.818C120.971 16.2987 120.375 16.039 119.628 16.039C118.881 16.039 118.285 16.2987 117.842 16.818C117.399 17.3373 117.177 18.129 117.177 19.193C117.177 20.257 117.399 21.055 117.842 21.587C118.285 22.1063 118.881 22.366 119.628 22.366ZM130.645 24.19C129.809 24.19 129.074 23.9937 128.441 23.601C127.808 23.1957 127.314 22.6193 126.959 21.872C126.604 21.1247 126.427 20.2317 126.427 19.193C126.427 18.1543 126.604 17.2677 126.959 16.533C127.314 15.7857 127.808 15.2157 128.441 14.823C129.074 14.4177 129.809 14.215 130.645 14.215C131.456 14.215 132.165 14.4177 132.773 14.823C133.394 15.2157 133.805 15.7477 134.008 16.419H133.799L134.008 14.405H136.288C136.25 14.7977 136.212 15.1967 136.174 15.602C136.149 16.0073 136.136 16.4063 136.136 16.799V24H133.78L133.761 22.024H133.989C133.786 22.6827 133.375 23.2083 132.754 23.601C132.133 23.9937 131.43 24.19 130.645 24.19ZM131.31 22.366C132.057 22.366 132.659 22.1063 133.115 21.587C133.571 21.055 133.799 20.257 133.799 19.193C133.799 18.129 133.571 17.3373 133.115 16.818C132.659 16.2987 132.057 16.039 131.31 16.039C130.563 16.039 129.961 16.2987 129.505 16.818C129.049 17.3373 128.821 18.129 128.821 19.193C128.821 20.257 129.043 21.055 129.486 21.587C129.942 22.1063 130.55 22.366 131.31 22.366ZM139.103 24V16.856C139.103 16.4507 139.091 16.039 139.065 15.621C139.053 15.203 139.021 14.7977 138.97 14.405H141.269L141.535 17.027H141.155C141.282 16.3937 141.491 15.868 141.782 15.45C142.086 15.032 142.454 14.7217 142.884 14.519C143.315 14.3163 143.784 14.215 144.29 14.215C144.518 14.215 144.702 14.2277 144.841 14.253C144.981 14.2657 145.12 14.2973 145.259 14.348L145.24 16.438C145 16.3367 144.791 16.2733 144.613 16.248C144.449 16.2227 144.24 16.21 143.986 16.21C143.442 16.21 142.979 16.324 142.599 16.552C142.232 16.78 141.953 17.0967 141.763 17.502C141.586 17.9073 141.497 18.3697 141.497 18.889V24H139.103ZM150.557 24.19C149.721 24.19 148.98 23.9937 148.334 23.601C147.7 23.1957 147.206 22.6193 146.852 21.872C146.497 21.1247 146.32 20.2317 146.32 19.193C146.32 18.1543 146.497 17.2677 146.852 16.533C147.206 15.7857 147.7 15.2157 148.334 14.823C148.98 14.4177 149.721 14.215 150.557 14.215C151.355 14.215 152.058 14.4113 152.666 14.804C153.286 15.184 153.698 15.7033 153.901 16.362H153.654V10.016H156.029V24H153.692V21.967H153.92C153.717 22.651 153.305 23.1957 152.685 23.601C152.077 23.9937 151.367 24.19 150.557 24.19ZM151.222 22.366C151.969 22.366 152.571 22.1063 153.027 21.587C153.483 21.055 153.711 20.257 153.711 19.193C153.711 18.129 153.483 17.3373 153.027 16.818C152.571 16.2987 151.969 16.039 151.222 16.039C150.474 16.039 149.866 16.2987 149.398 16.818C148.942 17.3373 148.714 18.129 148.714 19.193C148.714 20.257 148.942 21.055 149.398 21.587C149.866 22.1063 150.474 22.366 151.222 22.366Z" fill="#A4A6B3"/>
<path d="M17.4576 0L33.1946 7.88948L17.4576 15.758L1.72058 7.88948L17.4576 0ZM0 30.5298V10.7641L16.1147 18.8214V38.5871L0 30.5298ZM18.8005 18.8214L34.9151 10.7641V30.5298L18.8005 38.5871V18.8214Z" fill="#F3D7FF"/>
</svg>
